<svg width="430" height="70" viewBox="0 0 430 70" fill="none" xmlns="http://www.w3.org/2000/svg">
<g clip-path="url(#clip0_201_87)">
<path d="M69.23 61.13C72.15 59.26 74.97 57.01 74.97 52.59V25.03L70.55 20.39L68.83 22.11L72.65 26.15V52.59C72.65 56.26 71.3 58.96 69.05 60.83L69.23 61.13ZM52.35 2.70999L52.28 3.00999C53.55 3.53999 55.13 4.80999 55.13 7.35999V47.95L53.56 49.52L59.7 54.69L61.5 53.19L56.56 49.15L57.46 48.33V7.72999C57.44 4.50999 54.52 2.93999 52.35 2.70999ZM56.02 63.9C63.81 63.3 71.53 60.68 71.53 52.44V26.45L68 22.86L64.1 26.68V46.22L67.32 49.14L59.91 55.73H59.24L51.97 49.51L53.92 47.57V7.80999C53.92 4.80999 51.37 3.23999 49.8 2.86999V2.18999C50.48 1.80999 51.6 1.58999 53.03 1.58999C55.5 1.58999 57.82 3.08999 58.49 4.72999H58.71C60.21 2.47999 62.61 1.58999 64.93 1.50999C65.61 1.50999 66.43 1.58999 67.25 1.80999V2.62999C65.98 2.99999 64.1 4.57999 64.1 8.54999V25.1L73.69 15.89H74.37C75.04 16.56 79.23 20.38 80.06 20.91C80.44 21.14 80.96 21.28 81.41 21.28C82.24 21.28 82.76 20.98 83.43 20.68V21.73C82.68 22.4 81.71 23.68 81.71 25.33V47.87C81.71 57.83 70.78 63.9 56.02 64.95V63.9ZM100.28 20.54L98.33 21.89C100.57 24.51 103.42 27.89 106.27 31.03L108.29 29.68C105.44 26.53 102.6 23.08 100.28 20.54ZM98.03 36.49L105.22 31.62C102.75 28.77 100.12 25.78 98.03 23.38V36.49ZM102.67 53.12C98.33 51.17 94.44 49.6 90.99 47.73C91.21 46.46 91.29 44.96 91.29 40.76V24.36L88.97 25.56V40.76C88.97 44.95 88.89 47.65 88.52 48.84C91.89 50.72 96.69 52.74 101.11 54.69L102.67 53.12ZM87.85 24.88C92.12 22.78 98.55 18.96 102.82 15.89H103.57C106.34 18.81 110.46 23.45 113.98 26.6V27.42L98.03 37.84V44.28C99.68 45.33 104.32 47.65 107.09 48.62L113.53 42.41L114.28 43.23L101.33 55.74H100.58C96.24 53.87 90.62 51.47 87.03 49.45C87.48 48.1 87.85 44.8 87.85 40.69V24.88ZM415.33 61.04C418.25 59.17 421.06 56.91 421.06 52.5V24.94L416.64 20.29L414.92 22.02L418.74 26.06V52.5C418.74 56.17 417.39 58.87 415.14 60.74L415.33 61.04ZM398.45 2.61999L398.38 2.91999C399.65 3.43999 401.23 4.70999 401.23 7.26999V47.86L399.66 49.43L405.8 54.6L407.6 53.1L402.66 49.06L403.56 48.24V7.63999C403.54 4.41999 400.62 2.84999 398.45 2.61999ZM402.12 63.81C409.91 63.21 417.63 60.59 417.63 52.35V26.36L414.11 22.76L410.21 26.58V46.12L413.43 49.04L406.02 55.63H405.35L398.08 49.41L400.03 47.47V7.70999C400.03 4.70999 397.48 3.13999 395.91 2.76999V2.09999C396.59 1.72999 397.71 1.49999 399.14 1.49999C401.61 1.49999 403.93 2.99999 404.6 4.63999H404.83C406.33 2.39999 408.73 1.49999 411.05 1.41999C411.72 1.41999 412.55 1.49999 413.37 1.71999V2.53999C412.1 2.90999 410.22 4.48999 410.22 8.44999V25L419.81 15.79H420.49C421.16 16.46 425.35 20.28 426.18 20.81C426.56 21.03 427.08 21.18 427.53 21.18C428.35 21.18 428.88 20.88 429.55 20.58V21.94C428.8 22.61 427.82 23.89 427.82 25.54V47.77C427.82 57.73 416.89 63.8 402.13 64.84V63.81H402.12ZM195.03 20.51L193.09 21.86C195.33 24.48 198.18 27.85 201.02 31L203.04 29.65C200.19 26.5 197.35 23.05 195.03 20.51ZM192.9 36.4L200.09 31.53C197.62 28.68 195 25.69 192.9 23.29V36.4ZM197.54 53.02C193.2 51.07 189.3 49.5 185.86 47.63C186.08 46.36 186.16 44.86 186.16 40.66V24.26L183.84 25.46V40.66C183.84 44.86 183.77 47.55 183.39 48.75C186.76 50.63 191.55 52.65 195.97 54.59L197.54 53.02ZM182.72 24.79C186.99 22.69 193.43 18.87 197.7 15.8H198.45C201.22 18.72 205.34 23.36 208.86 26.51V27.33L192.9 37.74V44.18C194.55 45.23 199.19 47.55 201.96 48.52L208.4 42.31L209.15 43.13L196.2 55.65H195.45C191.1 53.78 185.49 51.38 181.89 49.36C182.34 48.01 182.71 44.72 182.71 40.6V24.79H182.72ZM222.33 52.87C219.41 52.05 216.56 50.17 216.56 46.13V9.80999L213.34 6.50999L211.62 8.22999L214.24 10.92V47.09C214.24 51.21 217.54 53.83 220.61 54.58L222.33 52.87ZM223.31 6.73999V45.24C223.31 46.88 224.88 48.46 226.38 48.75L228.7 46.43L229.37 47.25L221.13 55.64H220.68C217.54 54.96 213.12 52.19 213.12 47.32V11.46L210.8 9.13999L208.4 11.54L207.66 10.79L216.87 1.50999H217.47L223.31 6.73999ZM245.4 20.45L243.45 21.8C245.7 24.42 248.54 27.79 251.39 30.94L253.41 29.59C250.57 26.43 247.72 22.99 245.4 20.45ZM243.16 36.4L250.35 31.53C247.88 28.68 245.26 25.69 243.16 23.29V36.4ZM247.79 53.02C243.45 51.07 239.56 49.5 236.11 47.63C236.33 46.36 236.41 44.86 236.41 40.66V24.26L234.09 25.46V40.66C234.09 44.86 234.02 47.55 233.64 48.75C237.01 50.63 241.8 52.65 246.22 54.59L247.79 53.02ZM232.96 24.79C237.23 22.69 243.67 18.87 247.94 15.8H248.69C251.46 18.72 255.58 23.36 259.1 26.51V27.33L243.15 37.74V44.18C244.79 45.23 249.44 47.55 252.21 48.52L258.65 42.31L259.4 43.13L246.44 55.64H245.69C241.35 53.77 235.73 51.37 232.13 49.35C232.58 48 232.95 44.71 232.95 40.59V24.79H232.96ZM313.88 22.99C315.15 24.19 316.95 25.91 318.45 27.18L319.96 25.44C318.53 24.16 316.36 22.29 315.32 21.24L313.88 22.99ZM309.99 52.87C307 52.05 304.15 50.18 304.15 46.13V24.12L301 20.89L299.21 22.61L301.83 25.31V47.1C301.83 51.22 305.13 53.84 308.19 54.59L309.99 52.87ZM310.88 26.36V45.23C310.88 46.88 312.38 48.37 313.95 48.67L316.27 46.42L316.95 47.24L308.71 55.63H308.19C305.12 54.95 300.7 52.18 300.7 47.31V25.76L298.38 23.44L295.98 25.84L295.16 25.09L304.37 15.8H305.05L310.89 21.49V24.64L318.3 15.8H318.98C320.48 17.3 322.8 19.54 324.82 21.04V21.19L318.61 28.6H318.46C316.74 27.1 314.42 25 313.14 23.73L310.88 26.36ZM342.71 46.73V34.97C340.39 34.37 337.99 33.4 335.74 32.28V46.81L339.86 49.36L342.71 46.73ZM352 52.95C349.23 51.9 346.23 49.88 346.23 45.91V25.69L335.15 20.14C334.85 20.36 333.57 21.27 333.2 21.56L343.91 27.11V46.81C343.91 50.63 347.43 53.55 350.28 54.6L352 52.95ZM342.71 33.85V27.79L332.22 22.25C331.47 22.85 328.62 24.58 327.73 25.02C330.21 28.31 336.72 32.35 342.71 33.85ZM336.42 52.8L329.01 47.86V37L326.76 38.65V49.21L334.7 54.53L336.42 52.8ZM334.47 55.65L325.56 49.73V38.12C327.8 36.55 332.45 33.32 334.69 31.75C331.17 29.88 328.18 27.56 326.38 25.31V24.48C331.7 21.49 335.44 18.72 338.66 15.79H339.33C339.33 15.79 350.27 20.96 350.79 21.18C351.39 21.48 351.84 21.63 352.44 21.63C353.19 21.63 353.86 21.4 354.61 21.03V22.24C353.79 22.84 352.89 23.96 352.89 25.61V45.07C352.89 47.09 354.69 48.44 356.04 48.74L358.36 46.42L359.04 47.24L350.8 55.63H350.28C347.06 54.73 343.46 51.66 342.86 47.99L335 55.65H334.47ZM280.51 46.68V26.46L273.1 23.24V46.23L277.74 49.3L280.51 46.68ZM283.95 24.22L273.09 19.65V22.05L281.63 25.72V47.89C281.63 52.69 283.73 57.88 286.95 61.85L288.67 60.13C285.9 56.46 283.95 52.31 283.95 47.52V24.22ZM272.34 54.47L274.14 52.83L266.35 47.81V24.06L264.1 25.64V48.94L272.34 54.47ZM269.2 63.93C266.35 63.93 263.81 65.26 262.31 67.21V67.6C264.03 66.63 266.05 66.03 269.2 66.03C273.02 66.03 277.89 67.08 280.66 68.65L282.16 66.86C278.94 65.21 274.22 63.93 269.2 63.93ZM262.91 49.53V24.96L275.94 15.9H276.69C279.24 16.95 287.55 20.54 288.6 20.99C288.98 21.14 289.5 21.29 289.95 21.29C290.7 21.29 291.59 20.99 292.42 20.62V21.98C291.67 22.65 290.62 24.15 290.62 25.35V46.16C290.62 51.03 291.67 53.9 293.62 55.85V56.67C290.77 59.59 284.11 66.4 281.19 70H280.66C277.89 68.43 273.1 67.15 269.2 67.15C266.35 67.15 263.06 67.9 260.59 69.85L259.99 69.33C262.24 64.09 267.03 58.84 273.1 58.84C276.92 58.84 281.86 60.41 286.13 62.74C283.21 59.44 280.59 53.35 280.51 48.26L272.79 55.67H272.19L262.91 49.53ZM379.09 22.26L383.06 26.16V47.51L385.38 46.23V24.96L380.89 20.47L379.09 22.26ZM380.73 55.22C381.11 54.62 381.93 53.8 382.38 53.35L374.44 51.7V53.88L380.73 55.22ZM381.86 47.58V26.53L378.34 22.94L374.45 26.61V46.16C376.17 46.53 380.96 47.43 381.86 47.58ZM365.45 62.06L363.88 63.56L369.8 68.66L371.6 67.09L366.96 63.2L367.78 62.38V24.38L364.48 21.09L362.83 22.74L365.45 25.44V62.06ZM374.44 25.04L384.03 15.9H384.7C385.37 16.57 389.8 20.54 390.47 20.99C390.85 21.21 391.37 21.29 391.75 21.29C392.57 21.29 393.17 20.99 393.77 20.69V22.05C393.02 22.64 392.05 24.07 392.05 25.64V49.15C387.93 50.12 384.63 52.37 381.12 56.49H380.82L374.46 55.14V60.34L377.75 63.33L369.96 69.85H369.59L362.25 63.64L364.2 61.54V52.83C363.45 52.68 361.93 52.45 361.19 52.23V51.15C362.09 50.77 364.35 48.54 364.35 46.67V25.86L362.03 23.54L359.63 25.94L358.81 25.19L368 15.9H368.68L374.45 21.59V25.04H374.44ZM22.85 36.4L22.79 26.21L20.53 27.78V37.29C20.53 38.34 20.3 39.16 20.01 39.91L20.3 39.92C21.71 39 22.85 37.62 22.85 36.4ZM11.11 20.37C7.80999 23.67 4.74 28.24 4.74 34.08C4.74 47.93 14.08 54.9 25.84 54.9C33.18 54.9 38.3 50.93 41.3 47.93L41.1 47.63C37.66 50.4 32.96 52.66 25.84 52.66C16.33 52.66 7.14 46.82 7.14 34.09C7.14 29 8.97 24.02 11.37 20.64L11.11 20.37ZM36.42 14.98C27.58 14.98 19.64 10.64 13.2 10.64C9.08 10.64 4.29999 12.32 2.59999 17.11L2.85999 17.23C4.79999 13.93 9.21999 12.88 13.19 12.88C19.63 12.88 27.57 17.23 36.41 17.23C43.52 17.23 47.64 14.83 48.32 9.13999L47.95 9.07999C46.91 13.42 43.53 14.98 36.42 14.98ZM3.53999 34.08C3.53999 24.72 10.66 18.2 17.25 15.28L17.7 15.88C15.3 18.65 13.58 21.35 13.58 27.04C13.58 33.56 15.3 38.05 18 41.05C18.9 40.08 19.42 38.43 19.42 37.08V27.34L31.33 18.81L31.85 19.48C30.8 20.98 30.2 22.33 30.2 24.65V30.86C30.2 35.21 23.08 39.85 18.66 41.64C21.58 44.49 25.7 45.69 30.12 45.69C31.77 45.69 33.19 45.62 34.54 45.39V18.2C30.65 17.98 26.97 16.93 23.61 16.03C20.01 14.98 16.34 14.01 13.2 14.01C8.39999 14.01 2.55999 15.66 2.49 22.62C2.49 23.22 2.56 23.89 2.64 24.65L1.74 24.94C0.909995 22.77 0.459995 20.67 0.459995 18.57C0.399995 10.11 6.60999 2.69999 16.57 2.69999C20.76 2.69999 24.73 3.74999 28.18 4.71999C31.92 5.76999 35.59 6.73999 39.34 6.73999C41.21 6.73999 42.33 5.76999 42.33 3.96999C42.33 2.16999 41.43 1.27999 40.01 0.89999L40.17 -9.76585e-06C44.44 0.74999 49.15 3.29999 49.15 8.68999C49.15 15.2 44.44 18.27 36.5 18.27H35.68V45.23C40.92 44.26 44.36 41.79 46.98 37.67L47.8 38.12C44.88 47.33 38.07 56.09 25.94 56.09C13.58 56.09 3.53999 48.91 3.53999 34.08ZM153.34 36.4L153.28 26.21L151.02 27.78V37.29C151.02 38.34 150.79 39.16 150.5 39.91L150.78 39.92C152.2 39 153.34 37.62 153.34 36.4ZM141.59 20.37C138.29 23.67 135.22 28.24 135.22 34.08C135.22 47.93 144.56 54.9 156.32 54.9C163.66 54.9 168.78 50.93 171.77 47.93L171.57 47.63C168.13 50.4 163.43 52.66 156.32 52.66C146.81 52.66 137.62 46.82 137.62 34.09C137.62 29 139.45 24.02 141.85 20.64L141.59 20.37ZM166.9 14.98C158.06 14.98 150.12 10.64 143.68 10.64C139.56 10.64 134.78 12.32 133.08 17.11L133.34 17.23C135.29 13.93 139.71 12.88 143.67 12.88C150.11 12.88 158.05 17.23 166.89 17.23C174.01 17.23 178.12 14.83 178.8 9.13999L178.43 9.07999C177.4 13.42 174.02 14.98 166.9 14.98ZM134.02 34.08C134.02 24.72 141.14 18.2 147.73 15.28L148.18 15.88C145.78 18.65 144.06 21.35 144.06 27.04C144.06 33.56 145.78 38.05 148.48 41.05C149.38 40.08 149.9 38.43 149.9 37.08V27.34L161.81 18.81L162.33 19.48C161.28 20.98 160.68 22.33 160.68 24.65V30.86C160.68 35.21 153.56 39.85 149.14 41.64C152.06 44.49 156.18 45.69 160.6 45.69C162.25 45.69 163.67 45.62 165.02 45.39V18.2C161.13 17.98 157.45 16.93 154.09 16.03C150.49 14.98 146.82 14.01 143.68 14.01C138.88 14.01 133.04 15.66 132.97 22.62C132.97 23.22 133.04 23.89 133.12 24.65L132.22 24.94C131.39 22.77 130.94 20.67 130.94 18.57C130.87 10.11 137.08 2.68999 147.04 2.68999C151.23 2.68999 155.2 3.73999 158.65 4.70999C162.39 5.75999 166.06 6.72999 169.81 6.72999C171.68 6.72999 172.8 5.75999 172.8 3.95999C172.8 2.15999 171.9 1.26999 170.48 0.88999L170.63 -0.0100098C174.9 0.73999 179.61 3.28999 179.61 8.67999C179.61 15.19 174.9 18.26 166.96 18.26H166.14V45.22C171.38 44.25 174.83 41.78 177.45 37.66L178.27 38.11C175.35 47.32 168.54 56.08 156.41 56.08C144.07 56.09 134.02 48.91 134.02 34.08Z" fill="white"/>
</g>
<defs>
<clipPath id="clip0_201_87">
<rect width="430" height="70" fill="white"/>
</clipPath>
</defs>
</svg>
